<svg xmlns="http://www.w3.org/2000/svg" version="1.1" xmlns:xlink="http://www.w3.org/1999/xlink" xmlns:svgjs="http://svgjs.dev/svgjs" width="1000" height="378" viewBox="0 0 1000 378"><g transform="matrix(1,0,0,1,-0.6060603429339153,0.4300428729281407)"><svg viewBox="0 0 396 150" data-background-color="#35185a" preserveAspectRatio="xMidYMid meet" height="378" width="1000" xmlns="http://www.w3.org/2000/svg" xmlns:xlink="http://www.w3.org/1999/xlink"><defs></defs><g id="tight-bounds" transform="matrix(1,0,0,1,0.24000010419811701,-0.17065193370164877)"><svg viewBox="0 0 395.5199999999999 150.3413038674033" height="150.3413038674033" width="395.5199999999999"><g><svg viewBox="0 0 395.5199999999999 150.3413038674033" height="150.3413038674033" width="395.5199999999999"><g><svg viewBox="0 0 395.5199999999999 150.3413038674033" height="150.3413038674033" width="395.5199999999999"><g><svg viewBox="0 0 395.5199999999999 150.3413038674033" height="150.3413038674033" width="395.5199999999999"><g><svg viewBox="0 0 395.5199999999999 150.3413038674033" height="150.3413038674033" width="395.5199999999999"><g transform="matrix(1,0,0,1,0,0)"><svg width="395.5199999999999" viewBox="3.700000047683716 -34.400001525878906 90.5 34.400001525878906" height="150.3413038674033" data-palette-color="#ffffff"><path d="M36.35-23.85Q36.35-20.7 34.65-18.15 32.95-15.6 29.7-14.4L29.7-14.4 37.35 0 24.95 0 18.85-12.55 14.75-12.55 14.75 0 3.7 0 3.7-34.4 24.75-34.4Q28.45-34.4 31.08-32.98 33.7-31.55 35.02-29.13 36.35-26.7 36.35-23.85L36.35-23.85ZM25.1-23.4Q25.1-24.75 24.2-25.65 23.3-26.55 22-26.55L22-26.55 14.75-26.55 14.75-20.2 22-20.2Q23.3-20.2 24.2-21.13 25.1-22.05 25.1-23.4L25.1-23.4ZM53.65-19.7L65.9-34.4 79.6-34.4 67.25-20.25 79.85 0 66.8 0 59.65-12.6 53.65-7.7 53.65 0 42.6 0 42.6-34.4 53.65-34.4 53.65-19.7ZM94.2 0L83.6 0 83.6-9.95 94.2-9.95 94.2 0Z" opacity="1" transform="matrix(1,0,0,1,0,0)" fill="#ffffff" class="undefined-text-0" data-fill-palette-color="primary" id="text-0"></path></svg></g></svg></g></svg></g></svg></g></svg></g></svg><rect width="395.5199999999999" height="150.3413038674033" fill="none" stroke="none" visibility="hidden"></rect></g></svg></g></svg>